<?xml version="1.0" encoding="UTF-8"?>
<svg width="17px" height="17px" viewBox="0 0 17 17" version="1.1" xmlns="http://www.w3.org/2000/svg" xmlns:xlink="http://www.w3.org/1999/xlink">
    <title>search</title>
    <g id="Page-1" stroke="none" stroke-width="1" fill="none" fill-rule="evenodd" fill-opacity="0" stroke-linejoin="round">
        <g id="search" transform="translate(1.000000, 1.000000)" fill="#FFFFFF" fill-rule="nonzero" stroke="#DFDFDF">
            <path d="M9.908125,10.35 C8.85625,11.298125 7.46375,11.875 5.9375,11.875 C2.660625,11.875 0,9.214375 0,5.9375 C0,2.660625 2.660625,0 5.9375,0 C9.214375,0 11.875,2.660625 11.875,5.9375 C11.875,7.46375 11.298125,8.85625 10.35,9.908125 L14.7790625,14.3371875 C14.9010829,14.4592079 14.9010829,14.6570421 14.7790625,14.7790625 C14.6570421,14.9010829 14.4592079,14.9010829 14.3371875,14.7790625 L9.908125,10.35 L9.908125,10.35 Z M5.9375,0.625 C8.869375,0.625 11.25,3.005625 11.25,5.9375 C11.25,8.869375 8.869375,11.25 5.9375,11.25 C3.005625,11.25 0.625,8.869375 0.625,5.9375 C0.625,3.005625 3.005625,0.625 5.9375,0.625 Z" id="Shape"></path>
        </g>
    </g>
</svg>